<svg xmlns="http://www.w3.org/2000/svg" viewBox="0 0 882.42 176.9"><title>russia pattern 0032</title><g id="Logo"><g style="opacity:0.5"><path d="M817.59,108.77h-.38c-28.15,0-41.56,18.56-45.69,42.19-7.88,44.85,16,58.48,45.69,58.48h.38c29.69,0,53.57-13.63,45.7-58.48-4.16-23.63-17.54-42.19-45.7-42.19m-.07,90.7h-.21c-15.58,0-28.07-11.07-23.95-47,2.18-18.92,9.2-33.7,23.95-33.7h.21c14.72,0,21.75,14.78,23.91,33.7,4.14,36-8.36,47-23.91,47M972.8,156.79c0-.1,19.78-3.75,19.78-22.42,0-6.72-3-12.4-9.4-17.09s-14.29-7.09-24.13-7.09l-.43,0-.46,0c-9.86,0-17.79,2.39-24.12,7.09s-9.39,10.37-9.39,17.09c0,18.67,19.77,22.32,19.76,22.42s-28.25,3.29-28.25,24.7c0,24.36,28.38,28.27,42.46,28.27s42.43-3.91,42.43-28.27c0-21.41-28.25-24.7-28.25-24.7m1,40.38c-3,3.71-8.12,5.57-15.18,5.57s-12.18-1.86-15.21-5.57-4.38-8.59-4.14-14.5c.21-5.26,2.83-20.19,16.5-22v-7.44c-6.27-1.11-12.95-6-12.95-18.05,0-15.16,10.34-18.37,15.8-18.37s15.76,3.21,15.76,18.37c0,11.4-5.91,16.35-11.83,17.8v7.86c12.68,2.48,15.19,16.73,15.4,21.84.23,5.91-1.11,10.75-4.15,14.5m-758-60.62c0-23.75-27.39-23.75-46.05-23.75H124v94.06h20.25V120.44h25.45c5.58,0,22.7,0,22.7,16.11,0,12.83-28.71,27.92-42.44,35l0,15.27c6.54-3,15.48-7.11,20.37-9.44l25.14,29.5h22.76L186,169.37c20-11.56,29.73-22.35,29.73-32.82m93.65-23.75H290.59s1,6.67,1.3,8.91c2.26,15.39,4.92,37.29,4.92,54.1,0,9.84-6.74,25.58-25.38,25.58h-.18c-18.63,0-25.41-15.74-25.41-25.58,0-16.81,2.69-38.71,4.94-54.1.32-2.24,1.3-8.91,1.3-8.91H233.27s-1.32,6.91-1.75,9.19-7.19,37.18-7.19,49.18c0,23.61,18,38.27,46.92,38.27h.18c28.93,0,46.9-14.66,46.9-38.27,0-12-6.73-46.87-7.17-49.18l-1.74-9.19m204.37,95.29H534V112.8H513.79Zm238-86.83c-15.68-15.84-56.32-15.05-66.64,4.82-6.45,12.45.82,23.81.82,23.81l8-3.43c-2.88-3.71-2.84-23.56,15.4-26.7,20.36-3.52,30.18,14.38,25.85,25.28-7.48,18.84-42.78,44.94-57.94,55.12v6.7h84.15V195.2l-58,.14c29.72-11.79,77.91-44.31,48.39-74.08M887.16,117c-5,1.63-5.3,2-15.18,3.06V126h3.07c4.89,0,8.09,3.29,8.09,7.55l.05,73H903.4V112.8h-8.1c-3.3,1.86-6,3.49-8.14,4.2m-495.3,39.91c-4.58-2.25-11.05-5-20.37-8.59-7-2.63-12.21-4.71-15.49-6.2a23.68,23.68,0,0,1-7.54-5.06,9.29,9.29,0,0,1-2.79-6.7c0-3.28,1.45-5.9,4.46-8s8.55-3.18,13.59-3.18c9.14,0,23.31,2,32.43,6.9l5.4-7.66c-6.24-3.47-17.55-8.23-38.32-8.23-17.52,0-27.36,7.86-30.63,14.43-4,8-5.08,22,9,31.77,5.11,3.54,14.94,8.37,29.24,14.38l.72.28a56.29,56.29,0,0,1,8.43,4.23,16,16,0,0,1,4.56,4.27c2.26,3.21,4.2,11.23-3.53,17.1-3.35,2.56-8.05,3.79-13.79,3.79-15.88,0-37.84-6.54-37.84-6.54l-5.06,7.9s21.71,7.64,45,7.64c25,0,38.26-11.35,40.7-21.92,2.67-11.65-2.81-23-18.16-30.61m89.79,0c-4.59-2.25-11-5-20.35-8.59-7-2.63-12.23-4.71-15.5-6.2a23.74,23.74,0,0,1-7.55-5.06,9.26,9.26,0,0,1-2.8-6.7c0-3.28,1.46-5.9,4.47-8s8.54-3.18,13.6-3.18c9.16,0,23.34,2,32.43,6.9l5.41-7.66c-6.25-3.47-17.54-8.23-38.32-8.23-17.53,0-27.37,7.86-30.63,14.43-4,8-5.08,22,9,31.77,5.1,3.54,14.94,8.37,29.24,14.38l.71.28a54.67,54.67,0,0,1,8.42,4.23,16.33,16.33,0,0,1,4.58,4.27c2.25,3.21,4.21,11.23-3.56,17.1-3.33,2.56-8,3.79-13.78,3.79-15.86,0-37.82-6.54-37.82-6.54l-5.07,7.9s21.7,7.64,45,7.64c25,0,38.28-11.35,40.72-21.92,2.68-11.65-2.82-23-18.18-30.61M617.72,112.8h-19.2c-8,8.09-67.73,79.09-43.75,93.82,16.53,10.15,47.06-8.82,61.73-19l-5.72-9.43c-10.4,8.46-29.54,17.7-36.63,11.26-10.13-9.24,25.36-65.71,25.36-65.71,3.63,11.73,23.54,63.6,28.14,72.1l5.16,9.87h21.44c-2-3.7-4-7.43-5.91-11.18a388.33,388.33,0,0,1-30.62-81.77" transform="translate(-118.64 -32.85)" style="fill:#3e3c3c"/><path d="M415.73,38,400.08,80.33h13.11l1.74-5.7h15.3l1.75,5.7h13.55L429.84,38H415.73m1.58,28.52,5.26-17.61L428,66.54Zm97.17-28.62-9.74,42.46H489.8l-6.16-32.59h-.12l-5.76,32.59H462.69L453,37.92h11.94l5.58,32.6h.15l5.85-32.6h14.74l6.13,32.6h.12l5.69-32.6Zm-163.12,0h13.56V80.28H351.34Zm-37.63,0h33.42l-3.52,9.22H327.51V55.7h13.24L337,65h-9.5V80.28H313.73ZM401.32,55.7,397.59,65h-9.54V80.28H374.3V37.92h33.43l-3.53,9.22H388.05V55.7ZM761.37,37.92H773V64.28c0,11.6-7.76,16.81-19.15,16.81s-19.08-5.21-19.08-16.81V37.92h11.61V62.37c0,5.59,1.56,10.35,7.47,10.35s7.48-4.76,7.48-10.35Zm-107.63,0H637.85V80.38h15.89c14.89,0,25.81-5.55,25.81-21.4,0-16.4-10.63-21.06-25.81-21.06M654,72h-4.45V46.33H654c8.53,0,13.58,4.4,13.58,12.81S662.69,72,654,72m76.83-1.47.53,8.86a48.43,48.43,0,0,1-12.91,1.71c-11.62,0-25-5.71-25-21.75,0-14.78,10.6-22.12,25-22.12a47.17,47.17,0,0,1,13,2.19l-1,9.15a23.47,23.47,0,0,0-11.32-3c-8.26,0-13.65,5.83-13.65,13.75,0,8.34,6.08,13.38,14.55,13.38a31.35,31.35,0,0,0,10.9-2.2m61-32.6H777.92V80.38h11.62V65.53h4.52c10.85,0,17.29-5.11,17.29-13.65,0-9.59-6.24-14-19.57-14m.75,19.57h-3V46h3c4,0,7.2,1.36,7.2,5.71s-3.18,5.81-7.2,5.81M614.8,72h18v8.39H603.17V37.92H614.8ZM588.15,59.45v-.11c5.62-1.28,8.32-5.06,8.32-10.69,0-7.3-6.28-10.73-14-10.73H561.7V80.38h11.65V63.59h2.43c4.31,0,5.76,1.81,8.15,9.13l2.52,7.66h12.1l-4.24-11.6c-2.2-5.13-2.42-8.36-6.16-9.33m-11.74-3.87h-3.06V46h3.06c4.43,0,8.46.7,8.46,4.68,0,4.8-4.75,4.93-8.46,4.93M536,37.22c-14.36,0-21.85,8.32-21.85,21.92s7.61,22,21.85,22,21.89-8.46,21.89-22S550.41,37.22,536,37.22m0,35.5c-7,0-9.83-6.57-9.83-13.58,0-7.33,2.79-13.55,9.83-13.55s9.92,6.22,9.92,13.55c0,7-2.86,13.58-9.92,13.58" transform="translate(-118.64 -32.85)" style="fill:#3e3c3c"/></g><path d="M812.2,104.41h-.38c-28.15,0-41.56,18.56-45.68,42.18-7.89,44.85,16,58.48,45.68,58.48h.38c29.7,0,53.57-13.63,45.71-58.48-4.16-23.62-17.55-42.18-45.71-42.18m-.07,90.7h-.21c-15.58,0-28.06-11.07-23.95-47,2.18-18.91,9.2-33.7,23.95-33.7h.21c14.72,0,21.75,14.79,23.91,33.7,4.14,36-8.36,47-23.91,47m155.28-42.69c0-.09,19.79-3.75,19.79-22.41,0-6.73-3-12.4-9.4-17.1s-14.29-7.08-24.13-7.08l-.44,0-.46,0c-9.86,0-17.78,2.38-24.12,7.08s-9.39,10.37-9.39,17.1c0,18.66,19.78,22.32,19.77,22.41s-28.26,3.29-28.26,24.7c0,24.36,28.39,28.27,42.46,28.27s42.43-3.91,42.43-28.27c0-21.41-28.25-24.7-28.25-24.7m1,40.38q-4.56,5.56-15.18,5.58T938,192.8c-3-3.74-4.37-8.59-4.14-14.5.21-5.26,2.83-20.19,16.5-22v-7.44c-6.27-1.11-13-6-13-18,0-15.16,10.35-18.36,15.8-18.36S969,115.64,969,130.8c0,11.41-5.91,16.36-11.82,17.8v7.86c12.67,2.49,15.18,16.74,15.39,21.84.23,5.91-1.11,10.76-4.15,14.5m-758-60.62c0-23.74-27.39-23.74-46-23.74H118.64v94.05h20.24V116.07h25.45c5.58,0,22.7,0,22.7,16.11,0,12.83-28.71,27.92-42.44,35l0,15.27c6.54-3,15.48-7.11,20.37-9.44l25.14,29.5h22.76L180.66,165c20-11.56,29.72-22.35,29.72-32.83M304,108.44H285.2s1,6.67,1.3,8.9c2.26,15.4,4.93,37.3,4.93,54.1,0,9.84-6.75,25.59-25.38,25.59h-.19c-18.63,0-25.4-15.75-25.4-25.59,0-16.8,2.68-38.7,4.94-54.1.32-2.23,1.29-8.9,1.29-8.9H227.88s-1.32,6.91-1.74,9.19S219,154.8,219,166.8c0,23.61,18,38.27,46.91,38.27h.19c28.93,0,46.9-14.66,46.9-38.27,0-12-6.74-46.87-7.18-49.17L304,108.44M508.4,203.72h20.22V108.44H508.4Zm238-86.83c-15.68-15.84-56.32-15-66.64,4.82-6.45,12.45.83,23.82.83,23.82l8-3.43c-2.88-3.72-2.83-23.57,15.4-26.71,20.36-3.51,30.18,14.38,25.85,25.29-7.48,18.83-42.78,44.93-57.94,55.11v6.7H756V190.84L698,191c29.72-11.79,77.9-44.31,48.38-74.08m135.4-4.25c-5,1.63-5.3,2-15.17,3v5.92h3.06c4.89,0,8.09,3.29,8.09,7.56l0,73H898V108.44h-8.09a56.76,56.76,0,0,1-8.15,4.2m-495.3,39.91c-4.58-2.26-11.05-5-20.36-8.6-7-2.63-12.22-4.71-15.49-6.19a23.9,23.9,0,0,1-7.55-5.06,9.33,9.33,0,0,1-2.79-6.7c0-3.29,1.45-5.9,4.46-8s8.55-3.19,13.59-3.19c9.15,0,23.31,2,32.44,6.9l5.39-7.65c-6.23-3.47-17.54-8.23-38.31-8.23-17.52,0-27.37,7.86-30.63,14.43-4,8-5.09,22,9,31.77,5.11,3.53,14.95,8.37,29.25,14.37l.71.29a55,55,0,0,1,8.43,4.22,15.86,15.86,0,0,1,4.56,4.28c2.27,3.21,4.2,11.22-3.53,17.09-3.35,2.56-8,3.8-13.79,3.8-15.87,0-37.84-6.55-37.84-6.55l-5.06,7.9s21.71,7.64,45,7.64c25,0,38.27-11.34,40.7-21.91,2.68-11.66-2.81-23-18.16-30.61m89.8,0c-4.6-2.26-11-5-20.36-8.6-7-2.63-12.22-4.71-15.5-6.19a23.9,23.9,0,0,1-7.55-5.06,9.28,9.28,0,0,1-2.79-6.7c0-3.29,1.46-5.9,4.47-8s8.54-3.19,13.59-3.19c9.16,0,23.34,2,32.43,6.9l5.41-7.65c-6.25-3.47-17.54-8.23-38.32-8.23-17.53,0-27.37,7.86-30.63,14.43-4,8-5.07,22,9,31.77,5.1,3.53,14.94,8.37,29.24,14.37l.72.29a54.15,54.15,0,0,1,8.41,4.22,16.35,16.35,0,0,1,4.58,4.28c2.25,3.21,4.21,11.22-3.56,17.09-3.32,2.56-8,3.8-13.77,3.8-15.87,0-37.83-6.55-37.83-6.55l-5.07,7.9s21.71,7.64,45,7.64c25,0,38.28-11.34,40.72-21.91,2.68-11.66-2.82-23-18.17-30.61m136.06-44.11h-19.2c-8,8.09-67.73,79.08-43.75,93.81,16.53,10.16,47.06-8.81,61.74-19l-5.73-9.43c-10.4,8.46-29.54,17.7-36.63,11.26-10.12-9.24,25.36-65.7,25.36-65.7,3.64,11.73,23.55,63.59,28.14,72.09l5.16,9.88h21.44q-3.06-5.55-5.9-11.19a387.94,387.94,0,0,1-30.63-81.76" transform="translate(-118.64 -32.85)" style="fill:#fff"/><path d="M410.34,33.65,394.7,76h13.11l1.73-5.71h15.3L426.6,76h13.54L424.45,33.65H410.34m1.58,28.53,5.26-17.62,5.42,17.62Zm97.17-28.62L499.35,76H484.41l-6.15-32.58h-.13L472.37,76H457.3l-9.68-42.45h11.93l5.59,32.6h.14l5.85-32.6h14.74L492,66.16h.13l5.69-32.6ZM346,33.56h13.55V75.91H346Zm-37.64,0h33.42l-3.52,9.21H322.12v8.57h13.24l-3.74,9.28h-9.5V75.91H308.34Zm87.59,17.78-3.73,9.28h-9.54V75.91H368.91V33.56h33.43l-3.53,9.21H382.66v8.57ZM756,33.56h11.68V59.92c0,11.6-7.77,16.8-19.16,16.8s-19.08-5.2-19.08-16.8V33.56H741V58c0,5.59,1.56,10.35,7.46,10.35S756,63.59,756,58Zm-107.63,0H632.46V76h15.89c14.89,0,25.81-5.55,25.81-21.4,0-16.4-10.63-21-25.81-21m.24,34.06h-4.44V42h4.44c8.54,0,13.58,4.41,13.58,12.81s-4.87,12.85-13.58,12.85m76.83-1.46L726,75A48.52,48.52,0,0,1,713,76.72c-11.62,0-25-5.7-25-21.74,0-14.78,10.59-22.13,25-22.13a46.81,46.81,0,0,1,12.95,2.2l-1,9.15a23.43,23.43,0,0,0-11.33-3C705.36,41.22,700,47.05,700,55c0,8.34,6.08,13.37,14.55,13.37a31.58,31.58,0,0,0,10.9-2.19m61-32.6H772.54V76h11.61V61.16h4.52c10.85,0,17.29-5.11,17.29-13.64,0-9.59-6.23-14-19.56-14m.75,19.56h-3V41.61h3c4,0,7.19,1.35,7.19,5.71s-3.18,5.8-7.19,5.8M609.41,67.62h18V76H597.79V33.56h11.62ZM582.76,55.09V55c5.62-1.29,8.33-5.06,8.33-10.69,0-7.3-6.29-10.73-14-10.73H556.32V76H568V59.22h2.44c4.3,0,5.76,1.81,8.15,9.13L581.06,76h12.1l-4.24-11.6c-2.19-5.12-2.41-8.36-6.16-9.32M571,51.21H568v-9.6H571c4.42,0,8.45.69,8.45,4.67,0,4.8-4.75,4.93-8.45,4.93M530.62,32.85c-14.36,0-21.85,8.32-21.85,21.92s7.61,21.95,21.85,21.95,21.89-8.46,21.89-21.95S545,32.85,530.62,32.85m0,35.5c-7,0-9.82-6.56-9.82-13.58,0-7.32,2.78-13.55,9.82-13.55s9.92,6.23,9.92,13.55c0,7-2.86,13.58-9.92,13.58" transform="translate(-118.64 -32.85)" style="fill:#fff"/></g></svg>